<svg id="Layer_1" data-name="Layer 1" xmlns="http://www.w3.org/2000/svg" viewBox="0 0 226.77 340.16"><defs><style>.cls-1{fill:#0f4648;}</style></defs><title>logo</title><path class="cls-1" d="M71.85,122.88c.5-4.12.55-8,1.5-11.73,2.13-8.31,9.84-15.11,18.32-15.56a254.28,254.28,0,0,1,28,0c8.59.5,16.66,8.69,18.33,17.61a50.89,50.89,0,0,1,.44,6.89c0,.9,0,1.81,0,2.92,1.09,0,2.06,0,3,0,5.94,0,11.89-.08,17.84-.15,12-.13,19.68,9.51,20,19.59.15,5.36,0,10.73,0,16.09H166.2c0-2.87,0-5.62,0-8.37,0-2.49.1-5,.07-7.45-.06-4-2.45-6.51-6.44-6.56-5.31-.07-10.63,0-16,0-.18,2.44-.21,4.68-.54,6.86a8.42,8.42,0,0,1-8.81,7.55c-19.29,0-38.58-.08-57.87.06-5.33,0-9.24-3.74-9.52-9.45-.08-1.61,0-3.22,0-5.07-1.79,0-3.45,0-5.11,0-3.86,0-7.74-.1-11.59.2s-6.18,3.11-6.17,7.16c0,13.92.16,27.83.19,41.75q.09,39.34.12,78.67c0,5,3.15,8.27,8.16,8.26l104.83-.06a7.77,7.77,0,0,0,6.29-2.68,1.72,1.72,0,0,1,1.12-.59c4.44,0,8.88,0,13.53,0-1.86,7.36-5.93,12.59-13,15.16a18.16,18.16,0,0,1-6.07,1.06q-53.88.09-107.77.05a19.93,19.93,0,0,1-20.18-20.17c0-21.83.11-43.67.1-65.5,0-18.94-.13-37.89-.17-56.83a19.6,19.6,0,0,1,15-19.11,20.75,20.75,0,0,1,4.46-.42c6.7-.09,13.4-.12,20.1-.17Zm13.64-.09h39.43c0-2.32.11-4.51,0-6.69a8,8,0,0,0-7.9-7.44c-7.56,0-15.12,0-22.67,0-5.25,0-8.92,3.77-8.84,8.81C85.51,119.2,85.49,120.93,85.49,122.79Z"/><path class="cls-1" d="M93.8,179.64q-13.6,0-27.2,0c-3,0-5-1.9-5-4.74a4.35,4.35,0,0,1,4.55-4.58c2.65,0,5.31,0,8,0q23.21,0,46.42.05c3.72,0,5.9,2.43,5.25,5.8-.44,2.32-2,3.48-4.8,3.48q-12.23,0-24.43,0Z"/><path class="cls-1" d="M85.39,196.16h16.78c.86,0,1.73.05,2.59.12,2.75.26,4.12,2,4,5a4,4,0,0,1-4.26,4c-7.32.14-14.64.27-22,.35-5.19.06-10.39,0-15.58,0a4.75,4.75,0,0,1-5-4.78c0-2.79,1.91-4.6,4.88-4.61,6.17,0,12.34,0,18.52,0Z"/><path class="cls-1" d="M166,167.52h7.07a8.61,8.61,0,0,1,8.61,8.61v68.38a7.81,7.81,0,0,1-7.81,7.81H166a7.81,7.81,0,0,1-7.81-7.81V175.32a7.81,7.81,0,0,1,7.81-7.81Z"/><path class="cls-1" d="M166,167.52h7.07a8.61,8.61,0,0,1,8.61,8.61v68.38a7.81,7.81,0,0,1-7.81,7.81H166a7.81,7.81,0,0,1-7.81-7.81V175.32a7.81,7.81,0,0,1,7.81-7.81Z" transform="translate(-39.98 379.85) rotate(-90)"/><path class="cls-1" d="M75.91,221.47h10a11.28,11.28,0,0,1,1.54.12c1.64.26,2.46,2,2.4,5,0,2.38-1,4-2.54,4-4.35.14-8.71.27-13.06.35-3.09.06-6.18,0-9.27,0-1.72,0-3-2.06-3-4.78s1.14-4.6,2.91-4.62c3.67,0,7.34,0,11,0Z"/></svg>